<svg width="101" height="20" viewBox="0 0 101 20" fill="none" xmlns="http://www.w3.org/2000/svg">
<path d="M2.70005 1.08001L3.36005 1.14001L3.09005 16.02C3.07005 17.06 3.24005 17.78 3.60005 18.18C3.96005 18.58 4.63005 18.78 5.61005 18.78C5.65005 18.78 5.67005 18.84 5.67005 18.96C5.67005 19.08 5.65005 19.14 5.61005 19.14C5.05005 19.14 4.62005 19.13 4.32005 19.11L2.70005 19.08L1.23005 19.11C0.970049 19.13 0.580049 19.14 0.0600489 19.14C0.0200489 19.14 4.89131e-05 19.08 4.89131e-05 18.96C4.89131e-05 18.84 0.0200489 18.78 0.0600489 18.78C0.900049 18.78 1.49005 18.58 1.83005 18.18C2.19005 17.76 2.38005 17.04 2.40005 16.02L2.70005 1.08001ZM23.0101 18.78C23.0701 18.78 23.1001 18.84 23.1001 18.96C23.1001 19.08 23.0701 19.14 23.0101 19.14C22.39 19.14 21.9 19.13 21.54 19.11L19.5301 19.08L17.67 19.11C17.37 19.13 16.95 19.14 16.41 19.14C16.37 19.14 16.35 19.08 16.35 18.96C16.35 18.84 16.37 18.78 16.41 18.78C17.11 18.78 17.62 18.73 17.94 18.63C18.28 18.51 18.5 18.31 18.6 18.03C18.72 17.75 18.76 17.31 18.72 16.71L18.18 1.92001L19.05 0.810015L11.19 18.93C11.15 19.01 11.07 19.05 10.95 19.05C10.85 19.05 10.76 19.01 10.68 18.93L3.36005 2.88001C3.04005 2.14001 2.62005 1.60001 2.10005 1.26001C1.60005 0.920014 0.990049 0.750014 0.270049 0.750014C0.230049 0.750014 0.210049 0.690014 0.210049 0.570014C0.210049 0.450014 0.230049 0.390015 0.270049 0.390015L1.29005 0.420014C1.49005 0.440014 1.75005 0.450014 2.07005 0.450014C2.39005 0.450014 2.66005 0.440014 2.88005 0.420014C3.10005 0.400015 3.27005 0.390015 3.39005 0.390015C3.67005 0.390015 3.89005 0.490015 4.05005 0.690014C4.21005 0.870014 4.45005 1.29001 4.77005 1.95001L11.64 16.8L10.86 18.06L18.24 1.14001C18.34 0.920014 18.4701 0.740014 18.63 0.600014C18.81 0.460014 18.98 0.390015 19.14 0.390015C19.22 0.390015 19.3501 0.400015 19.5301 0.420014C19.7101 0.440014 19.96 0.450014 20.28 0.450014L21.63 0.420014C21.83 0.400015 22.14 0.390015 22.5601 0.390015C22.6 0.390015 22.62 0.450014 22.62 0.570014C22.62 0.690014 22.6 0.750014 22.5601 0.750014C21.52 0.750014 20.78 0.890014 20.3401 1.17001C19.92 1.43001 19.72 1.96001 19.74 2.76001L20.31 16.71C20.33 17.33 20.4001 17.78 20.52 18.06C20.66 18.34 20.91 18.53 21.27 18.63C21.65 18.73 22.23 18.78 23.0101 18.78ZM29.9724 9.99001H37.7424L37.9524 10.53H29.7024L29.9724 9.99001ZM44.5224 18.78C44.6024 18.78 44.6424 18.84 44.6424 18.96C44.6424 19.08 44.6024 19.14 44.5224 19.14C44.1624 19.14 43.5824 19.12 42.7824 19.08C42.0224 19.04 41.4624 19.02 41.1024 19.02C40.6824 19.02 40.1324 19.04 39.4524 19.08C38.8124 19.12 38.3324 19.14 38.0124 19.14C37.9324 19.14 37.8924 19.08 37.8924 18.96C37.8924 18.84 37.9324 18.78 38.0124 18.78C38.8324 18.78 39.4224 18.71 39.7824 18.57C40.1424 18.41 40.3224 18.15 40.3224 17.79C40.3224 17.51 40.2124 17.12 39.9924 16.62L33.2124 2.04001L33.7824 1.53001L27.9924 15.45C27.7124 16.13 27.5724 16.69 27.5724 17.13C27.5724 17.71 27.8124 18.13 28.2924 18.39C28.7724 18.65 29.5224 18.78 30.5424 18.78C30.6424 18.78 30.6924 18.84 30.6924 18.96C30.6924 19.08 30.6424 19.14 30.5424 19.14C30.1824 19.14 29.6624 19.12 28.9824 19.08C28.2224 19.04 27.5624 19.02 27.0024 19.02C26.5024 19.02 25.9124 19.04 25.2324 19.08C24.6324 19.12 24.1424 19.14 23.7624 19.14C23.6624 19.14 23.6124 19.08 23.6124 18.96C23.6124 18.84 23.6624 18.78 23.7624 18.78C24.3224 18.78 24.7924 18.68 25.1724 18.48C25.5724 18.28 25.9424 17.92 26.2824 17.4C26.6424 16.88 27.0224 16.14 27.4224 15.18L33.6924 0.0900131C33.7324 0.0300139 33.7924 1.43051e-05 33.8724 1.43051e-05C33.9724 1.43051e-05 34.0324 0.0300139 34.0524 0.0900131L41.0124 15.03C41.4724 16.05 41.8824 16.83 42.2424 17.37C42.6024 17.89 42.9524 18.26 43.2924 18.48C43.6524 18.68 44.0624 18.78 44.5224 18.78ZM48.5497 1.08001L49.2097 1.14001L48.9397 16.02C48.9197 17.06 49.0897 17.78 49.4497 18.18C49.8097 18.58 50.4797 18.78 51.4597 18.78C51.4997 18.78 51.5197 18.84 51.5197 18.96C51.5197 19.08 51.4997 19.14 51.4597 19.14C50.8997 19.14 50.4697 19.13 50.1697 19.11L48.5497 19.08L47.0797 19.11C46.8197 19.13 46.4297 19.14 45.9097 19.14C45.8697 19.14 45.8497 19.08 45.8497 18.96C45.8497 18.84 45.8697 18.78 45.9097 18.78C46.7497 18.78 47.3397 18.58 47.6797 18.18C48.0397 17.76 48.2297 17.04 48.2497 16.02L48.5497 1.08001ZM68.8597 18.78C68.9197 18.78 68.9497 18.84 68.9497 18.96C68.9497 19.08 68.9197 19.14 68.8597 19.14C68.2397 19.14 67.7497 19.13 67.3897 19.11L65.3797 19.08L63.5197 19.11C63.2197 19.13 62.7997 19.14 62.2597 19.14C62.2197 19.14 62.1997 19.08 62.1997 18.96C62.1997 18.84 62.2197 18.78 62.2597 18.78C62.9597 18.78 63.4697 18.73 63.7897 18.63C64.1297 18.51 64.3497 18.31 64.4497 18.03C64.5697 17.75 64.6097 17.31 64.5697 16.71L64.0297 1.92001L64.8997 0.810015L57.0397 18.93C56.9997 19.01 56.9197 19.05 56.7997 19.05C56.6997 19.05 56.6097 19.01 56.5297 18.93L49.2097 2.88001C48.8897 2.14001 48.4697 1.60001 47.9497 1.26001C47.4497 0.920014 46.8397 0.750014 46.1197 0.750014C46.0797 0.750014 46.0597 0.690014 46.0597 0.570014C46.0597 0.450014 46.0797 0.390015 46.1197 0.390015L47.1397 0.420014C47.3397 0.440014 47.5997 0.450014 47.9197 0.450014C48.2397 0.450014 48.5097 0.440014 48.7297 0.420014C48.9497 0.400015 49.1197 0.390015 49.2397 0.390015C49.5197 0.390015 49.7397 0.490015 49.8997 0.690014C50.0597 0.870014 50.2997 1.29001 50.6197 1.95001L57.4897 16.8L56.7097 18.06L64.0897 1.14001C64.1897 0.920014 64.3197 0.740014 64.4797 0.600014C64.6597 0.460014 64.8297 0.390015 64.9897 0.390015C65.0697 0.390015 65.1997 0.400015 65.3797 0.420014C65.5597 0.440014 65.8097 0.450014 66.1297 0.450014L67.4797 0.420014C67.6797 0.400015 67.9897 0.390015 68.4097 0.390015C68.4497 0.390015 68.4697 0.450014 68.4697 0.570014C68.4697 0.690014 68.4497 0.750014 68.4097 0.750014C67.3697 0.750014 66.6297 0.890014 66.1897 1.17001C65.7697 1.43001 65.5697 1.96001 65.5897 2.76001L66.1597 16.71C66.1797 17.33 66.2497 17.78 66.3697 18.06C66.5097 18.34 66.7597 18.53 67.1197 18.63C67.4997 18.73 68.0797 18.78 68.8597 18.78ZM75.312 16.71C75.312 17.33 75.372 17.78 75.492 18.06C75.632 18.34 75.882 18.53 76.242 18.63C76.602 18.73 77.182 18.78 77.982 18.78C78.022 18.78 78.042 18.84 78.042 18.96C78.042 19.08 78.022 19.14 77.982 19.14C77.382 19.14 76.912 19.13 76.572 19.11L74.472 19.08L72.462 19.11C72.102 19.13 71.612 19.14 70.992 19.14C70.932 19.14 70.902 19.08 70.902 18.96C70.902 18.84 70.932 18.78 70.992 18.78C71.772 18.78 72.342 18.73 72.702 18.63C73.082 18.53 73.342 18.34 73.482 18.06C73.622 17.76 73.692 17.31 73.692 16.71V2.82001C73.692 2.22001 73.622 1.78001 73.482 1.50001C73.342 1.22001 73.082 1.03001 72.702 0.930013C72.342 0.810013 71.772 0.750014 70.992 0.750014C70.932 0.750014 70.902 0.690014 70.902 0.570014C70.902 0.450014 70.932 0.390015 70.992 0.390015L72.462 0.420014C73.302 0.460014 73.972 0.480013 74.472 0.480013C75.032 0.480013 75.732 0.460014 76.572 0.420014L77.982 0.390015C78.022 0.390015 78.042 0.450014 78.042 0.570014C78.042 0.690014 78.022 0.750014 77.982 0.750014C77.202 0.750014 76.622 0.810013 76.242 0.930013C75.882 1.05001 75.632 1.26001 75.492 1.56001C75.372 1.84001 75.312 2.28001 75.312 2.88001V16.71ZM82.9943 1.08001L83.6543 1.14001V16.02C83.6543 17.04 83.8243 17.76 84.1643 18.18C84.5043 18.58 85.0943 18.78 85.9343 18.78C85.9943 18.78 86.0243 18.84 86.0243 18.96C86.0243 19.08 85.9943 19.14 85.9343 19.14C85.4543 19.14 85.0843 19.13 84.8243 19.11L83.3843 19.08L81.9143 19.11C81.6543 19.13 81.2643 19.14 80.7443 19.14C80.7043 19.14 80.6843 19.08 80.6843 18.96C80.6843 18.84 80.7043 18.78 80.7443 18.78C81.6043 18.78 82.1943 18.58 82.5143 18.18C82.8343 17.78 82.9943 17.06 82.9943 16.02V1.08001ZM98.0843 19.47C98.0843 19.51 98.0343 19.54 97.9343 19.56C97.8343 19.58 97.7643 19.57 97.7243 19.53L84.1643 2.85001C83.5243 2.07001 82.9343 1.53001 82.3943 1.23001C81.8743 0.910014 81.3543 0.750014 80.8343 0.750014C80.7743 0.750014 80.7443 0.690014 80.7443 0.570014C80.7443 0.450014 80.7743 0.390015 80.8343 0.390015L81.9143 0.420014C82.1343 0.440014 82.4443 0.450014 82.8443 0.450014C83.1843 0.450014 83.4643 0.440014 83.6843 0.420014C83.9043 0.400015 84.0743 0.390015 84.1943 0.390015C84.3343 0.390015 84.4443 0.430014 84.5243 0.510013C84.6243 0.570014 84.7343 0.710014 84.8543 0.930013C85.0743 1.29001 85.3143 1.63001 85.5743 1.95001L97.8443 17.19L98.0843 19.47ZM98.0843 19.47L97.4243 18.54V3.54001C97.4243 2.52001 97.2643 1.80001 96.9443 1.38001C96.6243 0.960014 96.0443 0.750014 95.2043 0.750014C95.1643 0.750014 95.1443 0.690014 95.1443 0.570014C95.1443 0.450014 95.1643 0.390015 95.2043 0.390015L96.3443 0.420014C96.9443 0.460014 97.4243 0.480013 97.7843 0.480013C98.1243 0.480013 98.6143 0.460014 99.2543 0.420014L100.424 0.390015C100.484 0.390015 100.514 0.450014 100.514 0.570014C100.514 0.690014 100.484 0.750014 100.424 0.750014C99.5643 0.750014 98.9543 0.960014 98.5943 1.38001C98.2543 1.80001 98.0843 2.52001 98.0843 3.54001V19.47Z" fill="#34AC9A"/>
</svg>
