<svg width="242" height="29" viewBox="0 0 242 29" fill="none" xmlns="http://www.w3.org/2000/svg">
<path d="M2.71606 7.61599H6.74806L6.84606 8.00799H2.50606L2.71606 7.61599ZM10.1501 11.046C10.1967 11.046 10.2201 11.074 10.2201 11.13C10.2201 11.186 10.1967 11.214 10.1501 11.214C9.96339 11.214 9.67406 11.2047 9.28206 11.186C8.87139 11.1673 8.57739 11.158 8.40006 11.158C8.16673 11.158 7.88206 11.1673 7.54606 11.186C7.22873 11.2047 6.97673 11.214 6.79006 11.214C6.75273 11.214 6.73406 11.186 6.73406 11.13C6.73406 11.074 6.75273 11.046 6.79006 11.046C7.03273 11.046 7.20539 11.0227 7.30806 10.976C7.42006 10.92 7.47606 10.8267 7.47606 10.696C7.47606 10.5373 7.38273 10.2713 7.19606 9.89799L4.35406 4.28399L5.04006 3.07999L2.25406 9.22599C2.13273 9.49666 2.07206 9.74866 2.07206 9.98199C2.07206 10.318 2.18873 10.5793 2.42206 10.766C2.66473 10.9527 2.98673 11.046 3.38806 11.046C3.43473 11.046 3.45806 11.074 3.45806 11.13C3.45806 11.186 3.43473 11.214 3.38806 11.214C3.22006 11.214 2.97739 11.2047 2.66006 11.186C2.30539 11.1673 1.99739 11.158 1.73606 11.158C1.48406 11.158 1.18073 11.1673 0.826061 11.186C0.508727 11.2047 0.252061 11.214 0.0560605 11.214C0.0187272 11.214 6.05416e-05 11.186 6.05416e-05 11.13C6.05416e-05 11.074 0.0187272 11.046 0.0560605 11.046C0.317394 11.046 0.536727 10.9947 0.714061 10.892C0.891394 10.78 1.06873 10.5887 1.24606 10.318C1.42339 10.038 1.63339 9.62732 1.87606 9.08599L4.91406 2.40799C4.93273 2.37999 4.97473 2.36599 5.04006 2.36599C5.11473 2.36599 5.15673 2.37999 5.16606 2.40799L8.66606 9.29599C8.99273 9.95866 9.26339 10.416 9.47806 10.668C9.69273 10.92 9.91673 11.046 10.1501 11.046ZM15.8635 2.30999C16.2741 2.30999 16.7035 2.34732 17.1515 2.42199C17.5995 2.48732 17.9495 2.57599 18.2015 2.68799C18.2855 2.71599 18.3368 2.75332 18.3555 2.79999C18.3835 2.83732 18.4068 2.90732 18.4255 3.00999L18.5935 4.95599C18.5935 4.98399 18.5701 5.00266 18.5235 5.01199C18.4768 5.02132 18.4488 5.00732 18.4395 4.96999C18.1221 4.23266 17.6975 3.66332 17.1655 3.26199C16.6335 2.86066 16.0175 2.65999 15.3175 2.65999C14.3935 2.65999 13.6795 3.00066 13.1755 3.68199C12.6715 4.36332 12.4195 5.27799 12.4195 6.42599C12.4195 7.28466 12.5548 8.06866 12.8255 8.77799C13.1055 9.48732 13.4928 10.052 13.9875 10.472C14.4915 10.8827 15.0608 11.088 15.6955 11.088C16.2928 11.088 16.8248 10.892 17.2915 10.5C17.7675 10.0987 18.1921 9.49199 18.5655 8.67999C18.5748 8.64266 18.6028 8.62866 18.6495 8.63799C18.7055 8.64732 18.7335 8.66599 18.7335 8.69399L18.5235 10.598C18.5048 10.71 18.4815 10.7847 18.4535 10.822C18.4348 10.85 18.3835 10.8827 18.2995 10.92C17.4688 11.228 16.6148 11.382 15.7375 11.382C14.5988 11.382 13.6468 11.158 12.8815 10.71C12.1161 10.2527 11.5515 9.67866 11.1875 8.98799C10.8328 8.28799 10.6555 7.55999 10.6555 6.80399C10.6555 5.91732 10.8935 5.13332 11.3695 4.45199C11.8548 3.77066 12.4941 3.24332 13.2875 2.86999C14.0901 2.49666 14.9488 2.30999 15.8635 2.30999ZM25.2287 2.30999C25.6394 2.30999 26.0687 2.34732 26.5167 2.42199C26.9647 2.48732 27.3147 2.57599 27.5667 2.68799C27.6507 2.71599 27.7021 2.75332 27.7207 2.79999C27.7487 2.83732 27.7721 2.90732 27.7907 3.00999L27.9587 4.95599C27.9587 4.98399 27.9354 5.00266 27.8887 5.01199C27.8421 5.02132 27.8141 5.00732 27.8047 4.96999C27.4874 4.23266 27.0627 3.66332 26.5307 3.26199C25.9987 2.86066 25.3827 2.65999 24.6827 2.65999C23.7587 2.65999 23.0447 3.00066 22.5407 3.68199C22.0367 4.36332 21.7847 5.27799 21.7847 6.42599C21.7847 7.28466 21.9201 8.06866 22.1907 8.77799C22.4707 9.48732 22.8581 10.052 23.3527 10.472C23.8567 10.8827 24.4261 11.088 25.0607 11.088C25.6581 11.088 26.1901 10.892 26.6567 10.5C27.1327 10.0987 27.5574 9.49199 27.9307 8.67999C27.9401 8.64266 27.9681 8.62866 28.0147 8.63799C28.0707 8.64732 28.0987 8.66599 28.0987 8.69399L27.8887 10.598C27.8701 10.71 27.8467 10.7847 27.8187 10.822C27.8001 10.85 27.7487 10.8827 27.6647 10.92C26.8341 11.228 25.9801 11.382 25.1027 11.382C23.9641 11.382 23.0121 11.158 22.2467 10.71C21.4814 10.2527 20.9167 9.67866 20.5527 8.98799C20.1981 8.28799 20.0207 7.55999 20.0207 6.80399C20.0207 5.91732 20.2587 5.13332 20.7347 4.45199C21.2201 3.77066 21.8594 3.24332 22.6527 2.86999C23.4554 2.49666 24.3141 2.30999 25.2287 2.30999ZM37.394 2.36599C37.422 2.33799 37.492 2.32399 37.604 2.32399C37.6693 2.32399 37.73 2.33332 37.786 2.35199C37.842 2.37066 37.87 2.39399 37.87 2.42199V10.08C37.87 10.36 37.898 10.57 37.954 10.71C38.01 10.8407 38.1126 10.9293 38.262 10.976C38.4113 11.0227 38.6446 11.046 38.962 11.046C38.99 11.046 39.004 11.074 39.004 11.13C39.004 11.186 38.99 11.214 38.962 11.214C38.6353 11.214 38.374 11.2093 38.178 11.2L37.1 11.186L35.84 11.2C35.672 11.2093 35.4433 11.214 35.154 11.214C35.126 11.214 35.112 11.186 35.112 11.13C35.112 11.074 35.126 11.046 35.154 11.046C35.4993 11.046 35.7513 11.0227 35.91 10.976C36.0686 10.9293 36.176 10.8407 36.232 10.71C36.288 10.5793 36.316 10.3693 36.316 10.08V3.90599L36.778 3.77999L30.716 11.368C30.688 11.396 30.618 11.41 30.506 11.41C30.3286 11.41 30.24 11.3773 30.24 11.312V3.59799C30.24 3.31799 30.212 3.11266 30.156 2.98199C30.1 2.85132 29.9973 2.76266 29.848 2.71599C29.6986 2.65999 29.4653 2.63199 29.148 2.63199C29.12 2.63199 29.106 2.60399 29.106 2.54799C29.106 2.49199 29.12 2.46399 29.148 2.46399L29.932 2.47799C30.3986 2.49666 30.758 2.50599 31.01 2.50599C31.3833 2.50599 31.8033 2.49666 32.27 2.47799L32.956 2.46399C32.984 2.46399 32.998 2.49199 32.998 2.54799C32.998 2.60399 32.984 2.63199 32.956 2.63199C32.6106 2.63199 32.3586 2.65999 32.2 2.71599C32.0413 2.76266 31.934 2.85132 31.878 2.98199C31.822 3.11266 31.794 3.31799 31.794 3.59799V9.82799L31.332 9.95399L37.394 2.36599ZM45.299 2.30999C45.7097 2.30999 46.139 2.34732 46.587 2.42199C47.035 2.48732 47.385 2.57599 47.637 2.68799C47.721 2.71599 47.7724 2.75332 47.791 2.79999C47.819 2.83732 47.8424 2.90732 47.861 3.00999L48.029 4.95599C48.029 4.98399 48.0057 5.00266 47.959 5.01199C47.9124 5.02132 47.8844 5.00732 47.875 4.96999C47.5577 4.23266 47.133 3.66332 46.601 3.26199C46.069 2.86066 45.453 2.65999 44.753 2.65999C43.829 2.65999 43.115 3.00066 42.611 3.68199C42.107 4.36332 41.855 5.27799 41.855 6.42599C41.855 7.28466 41.9904 8.06866 42.261 8.77799C42.541 9.48732 42.9284 10.052 43.423 10.472C43.927 10.8827 44.4964 11.088 45.131 11.088C45.7284 11.088 46.2604 10.892 46.727 10.5C47.203 10.0987 47.6277 9.49199 48.001 8.67999C48.0104 8.64266 48.0384 8.62866 48.085 8.63799C48.141 8.64732 48.169 8.66599 48.169 8.69399L47.959 10.598C47.9404 10.71 47.917 10.7847 47.889 10.822C47.8704 10.85 47.819 10.8827 47.735 10.92C46.9044 11.228 46.0504 11.382 45.173 11.382C44.0344 11.382 43.0824 11.158 42.317 10.71C41.5517 10.2527 40.987 9.67866 40.623 8.98799C40.2684 8.28799 40.091 7.55999 40.091 6.80399C40.091 5.91732 40.329 5.13332 40.805 4.45199C41.2904 3.77066 41.9297 3.24332 42.723 2.86999C43.5257 2.49666 44.3844 2.30999 45.299 2.30999ZM51.8783 2.78599C50.7676 2.78599 49.9696 3.50932 49.4843 4.95599C49.4749 4.98399 49.4469 4.99799 49.4003 4.99799C49.3536 4.98866 49.3303 4.96999 49.3303 4.94199C49.3676 4.56866 49.4096 4.08799 49.4563 3.49999C49.5029 2.90266 49.5263 2.45466 49.5263 2.15599C49.5263 2.10932 49.5496 2.08599 49.5963 2.08599C49.6523 2.08599 49.6803 2.10932 49.6803 2.15599C49.6803 2.36132 49.9463 2.46399 50.4783 2.46399C51.2809 2.49199 52.2189 2.50599 53.2923 2.50599C53.8429 2.50599 54.4263 2.49666 55.0423 2.47799L55.9943 2.46399C56.3489 2.46399 56.6056 2.44066 56.7643 2.39399C56.9323 2.34732 57.0396 2.25399 57.0863 2.11399C57.0956 2.07666 57.1236 2.05799 57.1703 2.05799C57.2263 2.05799 57.2543 2.07666 57.2543 2.11399C57.2263 2.39399 57.1936 2.84199 57.1563 3.45799C57.1283 4.07399 57.1143 4.56866 57.1143 4.94199C57.1143 4.96999 57.0909 4.98399 57.0443 4.98399C56.9976 4.98399 56.9696 4.96999 56.9603 4.94199C56.8203 4.22332 56.5589 3.68666 56.1763 3.33199C55.7936 2.96799 55.3223 2.78599 54.7623 2.78599C54.4916 2.78599 54.3096 2.84666 54.2163 2.96799C54.1323 3.07999 54.0903 3.29932 54.0903 3.62599V10.08C54.0903 10.3693 54.1183 10.5793 54.1743 10.71C54.2303 10.8407 54.3376 10.9293 54.4963 10.976C54.6549 11.0227 54.9069 11.046 55.2523 11.046C55.2803 11.046 55.2943 11.074 55.2943 11.13C55.2943 11.186 55.2803 11.214 55.2523 11.214C54.9163 11.214 54.6503 11.2093 54.4543 11.2L53.2923 11.186L52.1583 11.2C51.9623 11.2093 51.6916 11.214 51.3463 11.214C51.3183 11.214 51.3043 11.186 51.3043 11.13C51.3043 11.074 51.3183 11.046 51.3463 11.046C51.6823 11.046 51.9296 11.0227 52.0883 10.976C52.2563 10.9293 52.3683 10.8407 52.4243 10.71C52.4896 10.57 52.5223 10.36 52.5223 10.08V3.59799C52.5223 3.28066 52.4803 3.06599 52.3963 2.95399C52.3123 2.84199 52.1396 2.78599 51.8783 2.78599ZM58.3404 11.214C58.3124 11.214 58.2984 11.186 58.2984 11.13C58.2984 11.074 58.3124 11.046 58.3404 11.046C58.639 11.046 58.8537 11.0227 58.9844 10.976C59.1244 10.9293 59.2177 10.8407 59.2644 10.71C59.311 10.57 59.3344 10.36 59.3344 10.08V3.59799C59.3344 3.31799 59.311 3.11266 59.2644 2.98199C59.2177 2.85132 59.1244 2.76266 58.9844 2.71599C58.8444 2.65999 58.6297 2.63199 58.3404 2.63199C58.3124 2.63199 58.2984 2.60399 58.2984 2.54799C58.2984 2.49199 58.3124 2.46399 58.3404 2.46399H64.2764C64.3697 2.46399 64.4164 2.50599 64.4164 2.58999L64.4444 4.45199C64.4444 4.47066 64.4164 4.48466 64.3604 4.49399C64.3137 4.50332 64.2857 4.49399 64.2764 4.46599C64.127 3.92466 63.875 3.52332 63.5204 3.26199C63.1657 3.00066 62.699 2.86999 62.1204 2.86999H61.7004C61.4204 2.86999 61.215 2.93066 61.0844 3.05199C60.9537 3.17332 60.8884 3.35999 60.8884 3.61199V10.024C60.8884 10.2947 60.9397 10.4953 61.0424 10.626C61.145 10.7567 61.3084 10.822 61.5324 10.822H61.9944C62.7224 10.822 63.3057 10.6727 63.7444 10.374C64.183 10.0753 64.505 9.61332 64.7104 8.98799C64.7104 8.96932 64.729 8.95999 64.7664 8.95999C64.7944 8.95999 64.8177 8.96932 64.8364 8.98799C64.8644 8.99732 64.8784 9.00666 64.8784 9.01599C64.785 9.74399 64.7384 10.4067 64.7384 11.004C64.7384 11.0787 64.7244 11.1347 64.6964 11.172C64.6684 11.2 64.6124 11.214 64.5284 11.214H58.3404ZM63.7444 8.09199C63.7444 7.70932 63.595 7.41066 63.2964 7.19599C63.007 6.97199 62.587 6.85999 62.0364 6.85999H60.1464V6.46799H62.0504C62.5917 6.46799 63.007 6.37466 63.2964 6.18799C63.5857 6.00132 63.7304 5.73999 63.7304 5.40399C63.7304 5.37599 63.7537 5.36199 63.8004 5.36199C63.8564 5.36199 63.8844 5.37599 63.8844 5.40399L63.8704 6.66399L63.8844 7.33599C63.903 7.65332 63.9124 7.90532 63.9124 8.09199C63.9124 8.11066 63.8844 8.11999 63.8284 8.11999C63.7724 8.11999 63.7444 8.11066 63.7444 8.09199ZM73.093 3.62599C73.093 3.34599 73.065 3.14066 73.009 3.00999C72.953 2.86999 72.8456 2.77199 72.687 2.71599C72.5283 2.65999 72.2763 2.63199 71.931 2.63199C71.903 2.63199 71.889 2.60399 71.889 2.54799C71.889 2.49199 71.903 2.46399 71.931 2.46399L72.617 2.47799C73.0836 2.49666 73.5036 2.50599 73.877 2.50599C74.129 2.50599 74.4883 2.49666 74.955 2.47799L75.739 2.46399C75.767 2.46399 75.781 2.49199 75.781 2.54799C75.781 2.60399 75.767 2.63199 75.739 2.63199C75.4216 2.63199 75.1836 2.65999 75.025 2.71599C74.8756 2.76266 74.773 2.85132 74.717 2.98199C74.6703 3.11266 74.647 3.31799 74.647 3.59799V10.08C74.647 10.36 74.6703 10.57 74.717 10.71C74.773 10.8407 74.8756 10.9293 75.025 10.976C75.1743 11.0227 75.4123 11.046 75.739 11.046C75.767 11.046 75.781 11.074 75.781 11.13C75.781 11.186 75.767 11.214 75.739 11.214C75.4123 11.214 75.151 11.2093 74.955 11.2L73.877 11.186L72.617 11.2C72.449 11.2093 72.2203 11.214 71.931 11.214C71.903 11.214 71.889 11.186 71.889 11.13C71.889 11.074 71.903 11.046 71.931 11.046C72.2763 11.046 72.5283 11.0227 72.687 10.976C72.8456 10.9293 72.953 10.8407 73.009 10.71C73.065 10.5793 73.093 10.3693 73.093 10.08V3.62599ZM67.745 6.46799H73.807V6.85999H67.745V6.46799ZM67.017 3.59799C67.017 3.31799 66.989 3.11266 66.933 2.98199C66.877 2.85132 66.7743 2.76266 66.625 2.71599C66.485 2.65999 66.2563 2.63199 65.939 2.63199C65.911 2.63199 65.897 2.60399 65.897 2.54799C65.897 2.49199 65.911 2.46399 65.939 2.46399L66.695 2.47799C67.1243 2.49666 67.4696 2.50599 67.731 2.50599C68.0856 2.50599 68.4963 2.49666 68.963 2.47799L69.733 2.46399C69.7516 2.46399 69.761 2.49199 69.761 2.54799C69.761 2.60399 69.7516 2.63199 69.733 2.63199C69.397 2.63199 69.1496 2.65999 68.991 2.71599C68.8323 2.77199 68.7203 2.86999 68.655 3.00999C68.599 3.14066 68.571 3.34599 68.571 3.62599V10.08C68.571 10.36 68.599 10.57 68.655 10.71C68.711 10.8407 68.8183 10.9293 68.977 10.976C69.1356 11.0227 69.3876 11.046 69.733 11.046C69.7516 11.046 69.761 11.074 69.761 11.13C69.761 11.186 69.7516 11.214 69.733 11.214C69.4063 11.214 69.145 11.2093 68.949 11.2L67.731 11.186L66.681 11.2C66.4943 11.2093 66.2376 11.214 65.911 11.214C65.8923 11.214 65.883 11.186 65.883 11.13C65.883 11.074 65.8923 11.046 65.911 11.046C66.2376 11.046 66.4756 11.0227 66.625 10.976C66.7743 10.9293 66.877 10.8407 66.933 10.71C66.989 10.57 67.017 10.36 67.017 10.08V3.59799ZM79.2904 2.78599C78.1797 2.78599 77.3817 3.50932 76.8964 4.95599C76.887 4.98399 76.859 4.99799 76.8124 4.99799C76.7657 4.98866 76.7424 4.96999 76.7424 4.94199C76.7797 4.56866 76.8217 4.08799 76.8684 3.49999C76.915 2.90266 76.9384 2.45466 76.9384 2.15599C76.9384 2.10932 76.9617 2.08599 77.0084 2.08599C77.0644 2.08599 77.0924 2.10932 77.0924 2.15599C77.0924 2.36132 77.3584 2.46399 77.8904 2.46399C78.693 2.49199 79.631 2.50599 80.7044 2.50599C81.255 2.50599 81.8384 2.49666 82.4544 2.47799L83.4064 2.46399C83.761 2.46399 84.0177 2.44066 84.1764 2.39399C84.3444 2.34732 84.4517 2.25399 84.4984 2.11399C84.5077 2.07666 84.5357 2.05799 84.5824 2.05799C84.6384 2.05799 84.6664 2.07666 84.6664 2.11399C84.6384 2.39399 84.6057 2.84199 84.5684 3.45799C84.5404 4.07399 84.5264 4.56866 84.5264 4.94199C84.5264 4.96999 84.503 4.98399 84.4564 4.98399C84.4097 4.98399 84.3817 4.96999 84.3724 4.94199C84.2324 4.22332 83.971 3.68666 83.5884 3.33199C83.2057 2.96799 82.7344 2.78599 82.1744 2.78599C81.9037 2.78599 81.7217 2.84666 81.6284 2.96799C81.5444 3.07999 81.5024 3.29932 81.5024 3.62599V10.08C81.5024 10.3693 81.5304 10.5793 81.5864 10.71C81.6424 10.8407 81.7497 10.9293 81.9084 10.976C82.067 11.0227 82.319 11.046 82.6644 11.046C82.6924 11.046 82.7064 11.074 82.7064 11.13C82.7064 11.186 82.6924 11.214 82.6644 11.214C82.3284 11.214 82.0624 11.2093 81.8664 11.2L80.7044 11.186L79.5704 11.2C79.3744 11.2093 79.1037 11.214 78.7584 11.214C78.7304 11.214 78.7164 11.186 78.7164 11.13C78.7164 11.074 78.7304 11.046 78.7584 11.046C79.0944 11.046 79.3417 11.0227 79.5004 10.976C79.6684 10.9293 79.7804 10.8407 79.8364 10.71C79.9017 10.57 79.9344 10.36 79.9344 10.08V3.59799C79.9344 3.28066 79.8924 3.06599 79.8084 2.95399C79.7244 2.84199 79.5517 2.78599 79.2904 2.78599ZM89.2017 8.56799C89.1644 8.53066 89.1457 8.47466 89.1457 8.39999C89.1457 8.33466 89.1644 8.28332 89.2017 8.24599L91.8337 6.15999C91.8337 6.15066 91.8431 6.14599 91.8617 6.14599C91.8804 6.14599 91.8991 6.15999 91.9177 6.18799C91.9364 6.20666 91.9411 6.22066 91.9317 6.22999L90.6437 8.39999L91.9317 10.57C91.9411 10.5887 91.9271 10.6167 91.8897 10.654C91.8617 10.682 91.8431 10.682 91.8337 10.654L89.2017 8.56799ZM91.5817 8.56799C91.5444 8.51199 91.5257 8.45599 91.5257 8.39999C91.5257 8.35332 91.5444 8.30199 91.5817 8.24599L94.2277 6.15999C94.2277 6.15066 94.2371 6.14599 94.2557 6.14599C94.2744 6.14599 94.2931 6.15999 94.3117 6.18799C94.3304 6.20666 94.3351 6.22066 94.3257 6.22999L93.0237 8.39999L94.3257 10.57C94.3351 10.5887 94.3211 10.6167 94.2837 10.654C94.2557 10.682 94.2371 10.682 94.2277 10.654L91.5817 8.56799ZM102.706 3.62599C102.706 3.34599 102.678 3.14066 102.622 3.00999C102.566 2.86999 102.459 2.77199 102.3 2.71599C102.142 2.65999 101.89 2.63199 101.544 2.63199C101.516 2.63199 101.502 2.60399 101.502 2.54799C101.502 2.49199 101.516 2.46399 101.544 2.46399L102.23 2.47799C102.697 2.49666 103.117 2.50599 103.49 2.50599C103.742 2.50599 104.102 2.49666 104.568 2.47799L105.352 2.46399C105.38 2.46399 105.394 2.49199 105.394 2.54799C105.394 2.60399 105.38 2.63199 105.352 2.63199C105.035 2.63199 104.797 2.65999 104.638 2.71599C104.489 2.76266 104.386 2.85132 104.33 2.98199C104.284 3.11266 104.26 3.31799 104.26 3.59799V10.08C104.26 10.36 104.284 10.57 104.33 10.71C104.386 10.8407 104.489 10.9293 104.638 10.976C104.788 11.0227 105.026 11.046 105.352 11.046C105.38 11.046 105.394 11.074 105.394 11.13C105.394 11.186 105.38 11.214 105.352 11.214C105.026 11.214 104.764 11.2093 104.568 11.2L103.49 11.186L102.23 11.2C102.062 11.2093 101.834 11.214 101.544 11.214C101.516 11.214 101.502 11.186 101.502 11.13C101.502 11.074 101.516 11.046 101.544 11.046C101.89 11.046 102.142 11.0227 102.3 10.976C102.459 10.9293 102.566 10.8407 102.622 10.71C102.678 10.5793 102.706 10.3693 102.706 10.08V3.62599ZM97.3582 6.46799H103.42V6.85999H97.3582V6.46799ZM96.6302 3.59799C96.6302 3.31799 96.6022 3.11266 96.5462 2.98199C96.4902 2.85132 96.3876 2.76266 96.2382 2.71599C96.0982 2.65999 95.8696 2.63199 95.5522 2.63199C95.5242 2.63199 95.5102 2.60399 95.5102 2.54799C95.5102 2.49199 95.5242 2.46399 95.5522 2.46399L96.3082 2.47799C96.7376 2.49666 97.0829 2.50599 97.3442 2.50599C97.6989 2.50599 98.1096 2.49666 98.5762 2.47799L99.3462 2.46399C99.3649 2.46399 99.3742 2.49199 99.3742 2.54799C99.3742 2.60399 99.3649 2.63199 99.3462 2.63199C99.0102 2.63199 98.7629 2.65999 98.6042 2.71599C98.4456 2.77199 98.3336 2.86999 98.2682 3.00999C98.2122 3.14066 98.1842 3.34599 98.1842 3.62599V10.08C98.1842 10.36 98.2122 10.57 98.2682 10.71C98.3242 10.8407 98.4316 10.9293 98.5902 10.976C98.7489 11.0227 99.0009 11.046 99.3462 11.046C99.3649 11.046 99.3742 11.074 99.3742 11.13C99.3742 11.186 99.3649 11.214 99.3462 11.214C99.0196 11.214 98.7582 11.2093 98.5622 11.2L97.3442 11.186L96.2942 11.2C96.1076 11.2093 95.8509 11.214 95.5242 11.214C95.5056 11.214 95.4962 11.186 95.4962 11.13C95.4962 11.074 95.5056 11.046 95.5242 11.046C95.8509 11.046 96.0889 11.0227 96.2382 10.976C96.3876 10.9293 96.4902 10.8407 96.5462 10.71C96.6022 10.57 96.6302 10.36 96.6302 10.08V3.59799ZM106.37 11.214C106.342 11.214 106.328 11.186 106.328 11.13C106.328 11.074 106.342 11.046 106.37 11.046C106.668 11.046 106.883 11.0227 107.014 10.976C107.154 10.9293 107.247 10.8407 107.294 10.71C107.34 10.57 107.364 10.36 107.364 10.08V3.59799C107.364 3.31799 107.34 3.11266 107.294 2.98199C107.247 2.85132 107.154 2.76266 107.014 2.71599C106.874 2.65999 106.659 2.63199 106.37 2.63199C106.342 2.63199 106.328 2.60399 106.328 2.54799C106.328 2.49199 106.342 2.46399 106.37 2.46399H112.306C112.399 2.46399 112.446 2.50599 112.446 2.58999L112.474 4.45199C112.474 4.47066 112.446 4.48466 112.39 4.49399C112.343 4.50332 112.315 4.49399 112.306 4.46599C112.156 3.92466 111.904 3.52332 111.55 3.26199C111.195 3.00066 110.728 2.86999 110.15 2.86999H109.73C109.45 2.86999 109.244 2.93066 109.114 3.05199C108.983 3.17332 108.918 3.35999 108.918 3.61199V10.024C108.918 10.2947 108.969 10.4953 109.072 10.626C109.174 10.7567 109.338 10.822 109.562 10.822H110.024C110.752 10.822 111.335 10.6727 111.774 10.374C112.212 10.0753 112.534 9.61332 112.74 8.98799C112.74 8.96932 112.758 8.95999 112.796 8.95999C112.824 8.95999 112.847 8.96932 112.866 8.98799C112.894 8.99732 112.908 9.00666 112.908 9.01599C112.814 9.74399 112.768 10.4067 112.768 11.004C112.768 11.0787 112.754 11.1347 112.726 11.172C112.698 11.2 112.642 11.214 112.558 11.214H106.37ZM111.774 8.09199C111.774 7.70932 111.624 7.41066 111.326 7.19599C111.036 6.97199 110.616 6.85999 110.066 6.85999H108.176V6.46799H110.08C110.621 6.46799 111.036 6.37466 111.326 6.18799C111.615 6.00132 111.76 5.73999 111.76 5.40399C111.76 5.37599 111.783 5.36199 111.83 5.36199C111.886 5.36199 111.914 5.37599 111.914 5.40399L111.9 6.66399L111.914 7.33599C111.932 7.65332 111.942 7.90532 111.942 8.09199C111.942 8.11066 111.914 8.11999 111.858 8.11999C111.802 8.11999 111.774 8.11066 111.774 8.09199ZM118.364 2.40799C118.383 2.37999 118.43 2.36599 118.504 2.36599C118.579 2.36599 118.621 2.37999 118.63 2.40799L122.662 11.214H120.926L117.776 4.32599L118.504 3.07999L115.158 11.214H114.71L118.364 2.40799ZM113.912 13.51C113.912 12.726 113.88 12.0633 113.814 11.522C113.786 11.3447 113.772 11.172 113.772 11.004C113.772 10.9293 113.777 10.8827 113.786 10.864C113.805 10.8453 113.847 10.836 113.912 10.836H123.18C123.264 10.836 123.311 10.8453 123.32 10.864C123.339 10.8733 123.348 10.92 123.348 11.004C123.348 11.0413 123.339 11.172 123.32 11.396C123.246 12.0213 123.208 12.726 123.208 13.51C123.208 13.5567 123.18 13.58 123.124 13.58C123.078 13.58 123.054 13.5567 123.054 13.51C123.054 12.7633 122.784 12.194 122.242 11.802C121.71 11.41 120.94 11.214 119.932 11.214H116.824C115.938 11.214 115.256 11.41 114.78 11.802C114.314 12.194 114.08 12.7633 114.08 13.51C114.08 13.5567 114.052 13.58 113.996 13.58C113.94 13.58 113.912 13.5567 113.912 13.51ZM124.157 11.214C124.129 11.214 124.115 11.186 124.115 11.13C124.115 11.074 124.129 11.046 124.157 11.046C124.455 11.046 124.67 11.0227 124.801 10.976C124.941 10.9293 125.034 10.8407 125.081 10.71C125.127 10.57 125.151 10.36 125.151 10.08V3.59799C125.151 3.31799 125.127 3.11266 125.081 2.98199C125.034 2.85132 124.941 2.76266 124.801 2.71599C124.661 2.65999 124.446 2.63199 124.157 2.63199C124.129 2.63199 124.115 2.60399 124.115 2.54799C124.115 2.49199 124.129 2.46399 124.157 2.46399H130.093C130.186 2.46399 130.233 2.50599 130.233 2.58999L130.261 4.45199C130.261 4.47066 130.233 4.48466 130.177 4.49399C130.13 4.50332 130.102 4.49399 130.093 4.46599C129.943 3.92466 129.691 3.52332 129.337 3.26199C128.982 3.00066 128.515 2.86999 127.937 2.86999H127.517C127.237 2.86999 127.031 2.93066 126.901 3.05199C126.77 3.17332 126.705 3.35999 126.705 3.61199V10.024C126.705 10.2947 126.756 10.4953 126.859 10.626C126.961 10.7567 127.125 10.822 127.349 10.822H127.811C128.539 10.822 129.122 10.6727 129.561 10.374C129.999 10.0753 130.321 9.61332 130.527 8.98799C130.527 8.96932 130.545 8.95999 130.583 8.95999C130.611 8.95999 130.634 8.96932 130.653 8.98799C130.681 8.99732 130.695 9.00666 130.695 9.01599C130.601 9.74399 130.555 10.4067 130.555 11.004C130.555 11.0787 130.541 11.1347 130.513 11.172C130.485 11.2 130.429 11.214 130.345 11.214H124.157ZM129.561 8.09199C129.561 7.70932 129.411 7.41066 129.113 7.19599C128.823 6.97199 128.403 6.85999 127.853 6.85999H125.963V6.46799H127.867C128.408 6.46799 128.823 6.37466 129.113 6.18799C129.402 6.00132 129.547 5.73999 129.547 5.40399C129.547 5.37599 129.57 5.36199 129.617 5.36199C129.673 5.36199 129.701 5.37599 129.701 5.40399L129.687 6.66399L129.701 7.33599C129.719 7.65332 129.729 7.90532 129.729 8.09199C129.729 8.11066 129.701 8.11999 129.645 8.11999C129.589 8.11999 129.561 8.11066 129.561 8.09199ZM131.251 11.214C131.214 11.214 131.195 11.186 131.195 11.13C131.195 11.074 131.214 11.046 131.251 11.046C131.513 11.046 131.732 10.9947 131.909 10.892C132.087 10.78 132.264 10.5887 132.441 10.318C132.619 10.038 132.829 9.62732 133.071 9.08599L136.109 2.40799C136.128 2.37999 136.17 2.36599 136.235 2.36599C136.31 2.36599 136.352 2.37999 136.361 2.40799L139.861 9.29599C140.188 9.95866 140.459 10.416 140.673 10.668C140.888 10.92 141.112 11.046 141.345 11.046C141.392 11.046 141.415 11.074 141.415 11.13C141.415 11.186 141.392 11.214 141.345 11.214C141.159 11.214 140.869 11.2047 140.477 11.186C140.067 11.1673 139.773 11.158 139.595 11.158C139.362 11.158 139.077 11.1673 138.741 11.186C138.424 11.2047 138.172 11.214 137.985 11.214C137.948 11.214 137.929 11.186 137.929 11.13C137.929 11.074 137.948 11.046 137.985 11.046C138.228 11.046 138.401 11.0227 138.503 10.976C138.615 10.92 138.671 10.8267 138.671 10.696C138.671 10.5373 138.578 10.2713 138.391 9.89799L135.549 4.28399L136.235 3.07999L133.449 9.22599C133.328 9.49666 133.267 9.74866 133.267 9.98199C133.267 10.318 133.384 10.5793 133.617 10.766C133.86 10.9527 134.182 11.046 134.583 11.046C134.63 11.046 134.653 11.074 134.653 11.13C134.653 11.186 134.63 11.214 134.583 11.214C134.415 11.214 134.173 11.2047 133.855 11.186C133.501 11.1673 133.193 11.158 132.931 11.158C132.679 11.158 132.376 11.1673 132.021 11.186C131.704 11.2047 131.447 11.214 131.251 11.214ZM149.603 11.046C149.622 11.046 149.631 11.074 149.631 11.13C149.631 11.186 149.622 11.214 149.603 11.214C149.267 11.214 149.001 11.2093 148.805 11.2L147.727 11.186L146.677 11.2C146.5 11.2093 146.257 11.214 145.949 11.214C145.921 11.214 145.907 11.186 145.907 11.13C145.907 11.074 145.921 11.046 145.949 11.046C146.248 11.046 146.462 11.0227 146.593 10.976C146.733 10.9293 146.826 10.8407 146.873 10.71C146.92 10.5793 146.943 10.3693 146.943 10.08V6.60799L147.517 6.67799C147.162 6.67799 146.859 6.72932 146.607 6.83199C146.364 6.93466 146.108 7.13999 145.837 7.44799C145.566 7.75599 145.254 8.22732 144.899 8.86199C144.423 9.69266 144.087 10.262 143.891 10.57C143.704 10.878 143.574 11.0647 143.499 11.13C143.424 11.186 143.322 11.214 143.191 11.214H141.357C141.338 11.214 141.329 11.186 141.329 11.13C141.329 11.074 141.338 11.046 141.357 11.046C141.646 11.0367 141.88 10.9387 142.057 10.752C142.234 10.5653 142.477 10.206 142.785 9.67399L143.457 8.58199C143.765 8.07799 144.068 7.69066 144.367 7.41999C144.675 7.13999 144.992 6.94399 145.319 6.83199C145.655 6.71999 146.056 6.64532 146.523 6.60799L146.621 6.70599C145.501 6.69666 144.642 6.50532 144.045 6.13199C143.457 5.74932 143.163 5.23132 143.163 4.57799C143.163 4.15799 143.289 3.78466 143.541 3.45799C143.802 3.13132 144.157 2.87932 144.605 2.70199C145.053 2.51532 145.557 2.42199 146.117 2.42199C146.322 2.42199 146.565 2.43599 146.845 2.46399C146.957 2.47332 147.088 2.48266 147.237 2.49199C147.386 2.50132 147.55 2.50599 147.727 2.50599C148.016 2.50599 148.376 2.49666 148.805 2.47799L149.603 2.46399C149.622 2.46399 149.631 2.49199 149.631 2.54799C149.631 2.60399 149.622 2.63199 149.603 2.63199C149.258 2.63199 149.01 2.65999 148.861 2.71599C148.712 2.76266 148.614 2.85132 148.567 2.98199C148.52 3.10332 148.497 3.30866 148.497 3.59799V10.08C148.497 10.3693 148.52 10.5793 148.567 10.71C148.614 10.8407 148.712 10.9293 148.861 10.976C149.01 11.0227 149.258 11.046 149.603 11.046ZM144.773 4.22799C144.773 4.89999 144.941 5.43199 145.277 5.82399C145.613 6.21599 146.103 6.41199 146.747 6.41199C147.055 6.41199 147.321 6.37932 147.545 6.31399L146.943 6.49599V3.62599C146.943 2.94466 146.658 2.60399 146.089 2.60399C145.212 2.60399 144.773 3.14532 144.773 4.22799ZM156.903 11.158C157.398 11.158 157.771 10.948 158.023 10.528C158.284 10.0987 158.415 9.57599 158.415 8.95999C158.415 8.20399 158.214 7.63466 157.813 7.25199C157.421 6.85999 156.861 6.66399 156.133 6.66399C156.096 6.66399 156.077 6.63599 156.077 6.57999C156.077 6.52399 156.096 6.49599 156.133 6.49599C156.805 6.49599 157.304 6.31866 157.631 5.96399C157.967 5.60932 158.135 5.10999 158.135 4.46599C158.135 3.82199 158.023 3.33199 157.799 2.99599C157.584 2.65999 157.262 2.49199 156.833 2.49199C156.516 2.49199 156.198 2.60399 155.881 2.82799C155.564 3.04266 155.284 3.34132 155.041 3.72399C154.798 4.10666 154.616 4.53599 154.495 5.01199C154.486 5.03999 154.458 5.04932 154.411 5.03999C154.364 5.03066 154.341 5.01666 154.341 4.99799L154.537 3.00999C154.556 2.89799 154.574 2.82332 154.593 2.78599C154.612 2.74866 154.663 2.71599 154.747 2.68799C155.466 2.43599 156.212 2.30999 156.987 2.30999C157.603 2.30999 158.121 2.39866 158.541 2.57599C158.961 2.74399 159.274 2.97266 159.479 3.26199C159.694 3.54199 159.801 3.84999 159.801 4.18599C159.801 4.60599 159.652 4.99799 159.353 5.36199C159.064 5.71666 158.7 6.00599 158.261 6.22999C157.822 6.45399 157.402 6.57999 157.001 6.60799L157.197 6.49599C157.766 6.49599 158.275 6.58932 158.723 6.77599C159.18 6.95332 159.535 7.20999 159.787 7.54599C160.048 7.88199 160.179 8.27399 160.179 8.72199C160.179 9.22599 160.016 9.68332 159.689 10.094C159.362 10.4953 158.924 10.8127 158.373 11.046C157.822 11.27 157.22 11.382 156.567 11.382C156.147 11.382 155.746 11.3353 155.363 11.242C154.98 11.1487 154.686 11.018 154.481 10.85C154.397 10.8033 154.346 10.766 154.327 10.738C154.308 10.7007 154.294 10.6307 154.285 10.528L154.117 8.63799C154.117 8.61932 154.14 8.60532 154.187 8.59599C154.243 8.58666 154.276 8.59599 154.285 8.62399C154.36 9.09999 154.523 9.53399 154.775 9.92599C155.036 10.3087 155.354 10.612 155.727 10.836C156.1 11.0507 156.492 11.158 156.903 11.158ZM163.525 7.61599H167.557L167.655 8.00799H163.315L163.525 7.61599ZM170.959 11.046C171.005 11.046 171.029 11.074 171.029 11.13C171.029 11.186 171.005 11.214 170.959 11.214C170.772 11.214 170.483 11.2047 170.091 11.186C169.68 11.1673 169.386 11.158 169.209 11.158C168.975 11.158 168.691 11.1673 168.355 11.186C168.037 11.2047 167.785 11.214 167.599 11.214C167.561 11.214 167.543 11.186 167.543 11.13C167.543 11.074 167.561 11.046 167.599 11.046C167.841 11.046 168.014 11.0227 168.117 10.976C168.229 10.92 168.285 10.8267 168.285 10.696C168.285 10.5373 168.191 10.2713 168.005 9.89799L165.163 4.28399L165.849 3.07999L163.063 9.22599C162.941 9.49666 162.881 9.74866 162.881 9.98199C162.881 10.318 162.997 10.5793 163.231 10.766C163.473 10.9527 163.795 11.046 164.197 11.046C164.243 11.046 164.267 11.074 164.267 11.13C164.267 11.186 164.243 11.214 164.197 11.214C164.029 11.214 163.786 11.2047 163.469 11.186C163.114 11.1673 162.806 11.158 162.545 11.158C162.293 11.158 161.989 11.1673 161.635 11.186C161.317 11.2047 161.061 11.214 160.865 11.214C160.827 11.214 160.809 11.186 160.809 11.13C160.809 11.074 160.827 11.046 160.865 11.046C161.126 11.046 161.345 10.9947 161.523 10.892C161.7 10.78 161.877 10.5887 162.055 10.318C162.232 10.038 162.442 9.62732 162.685 9.08599L165.723 2.40799C165.741 2.37999 165.783 2.36599 165.849 2.36599C165.923 2.36599 165.965 2.37999 165.975 2.40799L169.475 9.29599C169.801 9.95866 170.072 10.416 170.287 10.668C170.501 10.92 170.725 11.046 170.959 11.046ZM181.825 3.62599C181.825 3.34599 181.797 3.14066 181.741 3.00999C181.685 2.86999 181.578 2.77199 181.419 2.71599C181.261 2.65999 181.009 2.63199 180.663 2.63199C180.635 2.63199 180.621 2.60399 180.621 2.54799C180.621 2.49199 180.635 2.46399 180.663 2.46399L181.349 2.47799C181.816 2.49666 182.236 2.50599 182.609 2.50599C182.861 2.50599 183.221 2.49666 183.687 2.47799L184.471 2.46399C184.499 2.46399 184.513 2.49199 184.513 2.54799C184.513 2.60399 184.499 2.63199 184.471 2.63199C184.154 2.63199 183.916 2.65999 183.757 2.71599C183.608 2.76266 183.505 2.85132 183.449 2.98199C183.403 3.11266 183.379 3.31799 183.379 3.59799V10.08C183.379 10.36 183.403 10.57 183.449 10.71C183.505 10.8407 183.608 10.9293 183.757 10.976C183.907 11.0227 184.145 11.046 184.471 11.046C184.499 11.046 184.513 11.074 184.513 11.13C184.513 11.186 184.499 11.214 184.471 11.214C184.145 11.214 183.883 11.2093 183.687 11.2L182.609 11.186L181.349 11.2C181.181 11.2093 180.953 11.214 180.663 11.214C180.635 11.214 180.621 11.186 180.621 11.13C180.621 11.074 180.635 11.046 180.663 11.046C181.009 11.046 181.261 11.0227 181.419 10.976C181.578 10.9293 181.685 10.8407 181.741 10.71C181.797 10.5793 181.825 10.3693 181.825 10.08V3.62599ZM176.477 6.46799H182.539V6.85999H176.477V6.46799ZM175.749 3.59799C175.749 3.31799 175.721 3.11266 175.665 2.98199C175.609 2.85132 175.507 2.76266 175.357 2.71599C175.217 2.65999 174.989 2.63199 174.671 2.63199C174.643 2.63199 174.629 2.60399 174.629 2.54799C174.629 2.49199 174.643 2.46399 174.671 2.46399L175.427 2.47799C175.857 2.49666 176.202 2.50599 176.463 2.50599C176.818 2.50599 177.229 2.49666 177.695 2.47799L178.465 2.46399C178.484 2.46399 178.493 2.49199 178.493 2.54799C178.493 2.60399 178.484 2.63199 178.465 2.63199C178.129 2.63199 177.882 2.65999 177.723 2.71599C177.565 2.77199 177.453 2.86999 177.387 3.00999C177.331 3.14066 177.303 3.34599 177.303 3.62599V10.08C177.303 10.36 177.331 10.57 177.387 10.71C177.443 10.8407 177.551 10.9293 177.709 10.976C177.868 11.0227 178.12 11.046 178.465 11.046C178.484 11.046 178.493 11.074 178.493 11.13C178.493 11.186 178.484 11.214 178.465 11.214C178.139 11.214 177.877 11.2093 177.681 11.2L176.463 11.186L175.413 11.2C175.227 11.2093 174.97 11.214 174.643 11.214C174.625 11.214 174.615 11.186 174.615 11.13C174.615 11.074 174.625 11.046 174.643 11.046C174.97 11.046 175.208 11.0227 175.357 10.976C175.507 10.9293 175.609 10.8407 175.665 10.71C175.721 10.57 175.749 10.36 175.749 10.08V3.59799ZM185.489 11.214C185.461 11.214 185.447 11.186 185.447 11.13C185.447 11.074 185.461 11.046 185.489 11.046C185.787 11.046 186.002 11.0227 186.133 10.976C186.273 10.9293 186.366 10.8407 186.413 10.71C186.459 10.57 186.483 10.36 186.483 10.08V3.59799C186.483 3.31799 186.459 3.11266 186.413 2.98199C186.366 2.85132 186.273 2.76266 186.133 2.71599C185.993 2.65999 185.778 2.63199 185.489 2.63199C185.461 2.63199 185.447 2.60399 185.447 2.54799C185.447 2.49199 185.461 2.46399 185.489 2.46399H191.425C191.518 2.46399 191.565 2.50599 191.565 2.58999L191.593 4.45199C191.593 4.47066 191.565 4.48466 191.509 4.49399C191.462 4.50332 191.434 4.49399 191.425 4.46599C191.275 3.92466 191.023 3.52332 190.669 3.26199C190.314 3.00066 189.847 2.86999 189.269 2.86999H188.849C188.569 2.86999 188.363 2.93066 188.233 3.05199C188.102 3.17332 188.037 3.35999 188.037 3.61199V10.024C188.037 10.2947 188.088 10.4953 188.191 10.626C188.293 10.7567 188.457 10.822 188.681 10.822H189.143C189.871 10.822 190.454 10.6727 190.893 10.374C191.331 10.0753 191.653 9.61332 191.859 8.98799C191.859 8.96932 191.877 8.95999 191.915 8.95999C191.943 8.95999 191.966 8.96932 191.985 8.98799C192.013 8.99732 192.027 9.00666 192.027 9.01599C191.933 9.74399 191.887 10.4067 191.887 11.004C191.887 11.0787 191.873 11.1347 191.845 11.172C191.817 11.2 191.761 11.214 191.677 11.214H185.489ZM190.893 8.09199C190.893 7.70932 190.743 7.41066 190.445 7.19599C190.155 6.97199 189.735 6.85999 189.185 6.85999H187.295V6.46799H189.199C189.74 6.46799 190.155 6.37466 190.445 6.18799C190.734 6.00132 190.879 5.73999 190.879 5.40399C190.879 5.37599 190.902 5.36199 190.949 5.36199C191.005 5.36199 191.033 5.37599 191.033 5.40399L191.019 6.66399L191.033 7.33599C191.051 7.65332 191.061 7.90532 191.061 8.09199C191.061 8.11066 191.033 8.11999 190.977 8.11999C190.921 8.11999 190.893 8.11066 190.893 8.09199ZM197.483 2.40799C197.502 2.37999 197.549 2.36599 197.623 2.36599C197.698 2.36599 197.74 2.37999 197.749 2.40799L201.781 11.214H200.045L196.895 4.32599L197.623 3.07999L194.277 11.214H193.829L197.483 2.40799ZM193.031 13.51C193.031 12.726 192.999 12.0633 192.933 11.522C192.905 11.3447 192.891 11.172 192.891 11.004C192.891 10.9293 192.896 10.8827 192.905 10.864C192.924 10.8453 192.966 10.836 193.031 10.836H202.299C202.383 10.836 202.43 10.8453 202.439 10.864C202.458 10.8733 202.467 10.92 202.467 11.004C202.467 11.0413 202.458 11.172 202.439 11.396C202.365 12.0213 202.327 12.726 202.327 13.51C202.327 13.5567 202.299 13.58 202.243 13.58C202.197 13.58 202.173 13.5567 202.173 13.51C202.173 12.7633 201.903 12.194 201.361 11.802C200.829 11.41 200.059 11.214 199.051 11.214H195.943C195.057 11.214 194.375 11.41 193.899 11.802C193.433 12.194 193.199 12.7633 193.199 13.51C193.199 13.5567 193.171 13.58 193.115 13.58C193.059 13.58 193.031 13.5567 193.031 13.51ZM203.276 11.214C203.248 11.214 203.234 11.186 203.234 11.13C203.234 11.074 203.248 11.046 203.276 11.046C203.575 11.046 203.789 11.0227 203.92 10.976C204.06 10.9293 204.153 10.8407 204.2 10.71C204.247 10.57 204.27 10.36 204.27 10.08V3.59799C204.27 3.31799 204.247 3.11266 204.2 2.98199C204.153 2.85132 204.06 2.76266 203.92 2.71599C203.78 2.65999 203.565 2.63199 203.276 2.63199C203.248 2.63199 203.234 2.60399 203.234 2.54799C203.234 2.49199 203.248 2.46399 203.276 2.46399H209.212C209.305 2.46399 209.352 2.50599 209.352 2.58999L209.38 4.45199C209.38 4.47066 209.352 4.48466 209.296 4.49399C209.249 4.50332 209.221 4.49399 209.212 4.46599C209.063 3.92466 208.811 3.52332 208.456 3.26199C208.101 3.00066 207.635 2.86999 207.056 2.86999H206.636C206.356 2.86999 206.151 2.93066 206.02 3.05199C205.889 3.17332 205.824 3.35999 205.824 3.61199V10.024C205.824 10.2947 205.875 10.4953 205.978 10.626C206.081 10.7567 206.244 10.822 206.468 10.822H206.93C207.658 10.822 208.241 10.6727 208.68 10.374C209.119 10.0753 209.441 9.61332 209.646 8.98799C209.646 8.96932 209.665 8.95999 209.702 8.95999C209.73 8.95999 209.753 8.96932 209.772 8.98799C209.8 8.99732 209.814 9.00666 209.814 9.01599C209.721 9.74399 209.674 10.4067 209.674 11.004C209.674 11.0787 209.66 11.1347 209.632 11.172C209.604 11.2 209.548 11.214 209.464 11.214H203.276ZM208.68 8.09199C208.68 7.70932 208.531 7.41066 208.232 7.19599C207.943 6.97199 207.523 6.85999 206.972 6.85999H205.082V6.46799H206.986C207.527 6.46799 207.943 6.37466 208.232 6.18799C208.521 6.00132 208.666 5.73999 208.666 5.40399C208.666 5.37599 208.689 5.36199 208.736 5.36199C208.792 5.36199 208.82 5.37599 208.82 5.40399L208.806 6.66399L208.82 7.33599C208.839 7.65332 208.848 7.90532 208.848 8.09199C208.848 8.11066 208.82 8.11999 208.764 8.11999C208.708 8.11999 208.68 8.11066 208.68 8.09199ZM210.371 11.214C210.333 11.214 210.315 11.186 210.315 11.13C210.315 11.074 210.333 11.046 210.371 11.046C210.632 11.046 210.851 10.9947 211.029 10.892C211.206 10.78 211.383 10.5887 211.561 10.318C211.738 10.038 211.948 9.62732 212.191 9.08599L215.229 2.40799C215.247 2.37999 215.289 2.36599 215.355 2.36599C215.429 2.36599 215.471 2.37999 215.481 2.40799L218.981 9.29599C219.307 9.95866 219.578 10.416 219.793 10.668C220.007 10.92 220.231 11.046 220.465 11.046C220.511 11.046 220.535 11.074 220.535 11.13C220.535 11.186 220.511 11.214 220.465 11.214C220.278 11.214 219.989 11.2047 219.597 11.186C219.186 11.1673 218.892 11.158 218.715 11.158C218.481 11.158 218.197 11.1673 217.861 11.186C217.543 11.2047 217.291 11.214 217.105 11.214C217.067 11.214 217.049 11.186 217.049 11.13C217.049 11.074 217.067 11.046 217.105 11.046C217.347 11.046 217.52 11.0227 217.623 10.976C217.735 10.92 217.791 10.8267 217.791 10.696C217.791 10.5373 217.697 10.2713 217.511 9.89799L214.669 4.28399L215.355 3.07999L212.569 9.22599C212.447 9.49666 212.387 9.74866 212.387 9.98199C212.387 10.318 212.503 10.5793 212.737 10.766C212.979 10.9527 213.301 11.046 213.703 11.046C213.749 11.046 213.773 11.074 213.773 11.13C213.773 11.186 213.749 11.214 213.703 11.214C213.535 11.214 213.292 11.2047 212.975 11.186C212.62 11.1673 212.312 11.158 212.051 11.158C211.799 11.158 211.495 11.1673 211.141 11.186C210.823 11.2047 210.567 11.214 210.371 11.214ZM221.022 11.214C220.994 11.214 220.98 11.186 220.98 11.13C220.98 11.074 220.994 11.046 221.022 11.046C221.321 11.046 221.535 11.0227 221.666 10.976C221.806 10.9293 221.899 10.8407 221.946 10.71C221.993 10.57 222.016 10.36 222.016 10.08V3.59799C222.016 3.31799 221.993 3.11266 221.946 2.98199C221.899 2.85132 221.806 2.76266 221.666 2.71599C221.526 2.65999 221.311 2.63199 221.022 2.63199C220.994 2.63199 220.98 2.60399 220.98 2.54799C220.98 2.49199 220.994 2.46399 221.022 2.46399H226.958C227.051 2.46399 227.098 2.50599 227.098 2.58999L227.126 4.45199C227.126 4.47066 227.098 4.48466 227.042 4.49399C226.995 4.50332 226.967 4.49399 226.958 4.46599C226.809 3.92466 226.557 3.52332 226.202 3.26199C225.847 3.00066 225.381 2.86999 224.802 2.86999H224.382C224.102 2.86999 223.897 2.93066 223.766 3.05199C223.635 3.17332 223.57 3.35999 223.57 3.61199V10.024C223.57 10.2947 223.621 10.4953 223.724 10.626C223.827 10.7567 223.99 10.822 224.214 10.822H224.676C225.404 10.822 225.987 10.6727 226.426 10.374C226.865 10.0753 227.187 9.61332 227.392 8.98799C227.392 8.96932 227.411 8.95999 227.448 8.95999C227.476 8.95999 227.499 8.96932 227.518 8.98799C227.546 8.99732 227.56 9.00666 227.56 9.01599C227.467 9.74399 227.42 10.4067 227.42 11.004C227.42 11.0787 227.406 11.1347 227.378 11.172C227.35 11.2 227.294 11.214 227.21 11.214H221.022ZM226.426 8.09199C226.426 7.70932 226.277 7.41066 225.978 7.19599C225.689 6.97199 225.269 6.85999 224.718 6.85999H222.828V6.46799H224.732C225.273 6.46799 225.689 6.37466 225.978 6.18799C226.267 6.00132 226.412 5.73999 226.412 5.40399C226.412 5.37599 226.435 5.36199 226.482 5.36199C226.538 5.36199 226.566 5.37599 226.566 5.40399L226.552 6.66399L226.566 7.33599C226.585 7.65332 226.594 7.90532 226.594 8.09199C226.594 8.11066 226.566 8.11999 226.51 8.11999C226.454 8.11999 226.426 8.11066 226.426 8.09199ZM236.867 2.36599C236.895 2.33799 236.965 2.32399 237.077 2.32399C237.142 2.32399 237.203 2.33332 237.259 2.35199C237.315 2.37066 237.343 2.39399 237.343 2.42199V10.08C237.343 10.36 237.371 10.57 237.427 10.71C237.483 10.8407 237.585 10.9293 237.735 10.976C237.884 11.0227 238.117 11.046 238.435 11.046C238.463 11.046 238.477 11.074 238.477 11.13C238.477 11.186 238.463 11.214 238.435 11.214C238.108 11.214 237.847 11.2093 237.651 11.2L236.573 11.186L235.313 11.2C235.145 11.2093 234.916 11.214 234.627 11.214C234.599 11.214 234.585 11.186 234.585 11.13C234.585 11.074 234.599 11.046 234.627 11.046C234.972 11.046 235.224 11.0227 235.383 10.976C235.541 10.9293 235.649 10.8407 235.705 10.71C235.761 10.5793 235.789 10.3693 235.789 10.08V3.90599L236.251 3.77999L230.189 11.368C230.161 11.396 230.091 11.41 229.979 11.41C229.801 11.41 229.713 11.3773 229.713 11.312V3.59799C229.713 3.31799 229.685 3.11266 229.629 2.98199C229.573 2.85132 229.47 2.76266 229.321 2.71599C229.171 2.65999 228.938 2.63199 228.621 2.63199C228.593 2.63199 228.579 2.60399 228.579 2.54799C228.579 2.49199 228.593 2.46399 228.621 2.46399L229.405 2.47799C229.871 2.49666 230.231 2.50599 230.483 2.50599C230.856 2.50599 231.276 2.49666 231.743 2.47799L232.429 2.46399C232.457 2.46399 232.471 2.49199 232.471 2.54799C232.471 2.60399 232.457 2.63199 232.429 2.63199C232.083 2.63199 231.831 2.65999 231.673 2.71599C231.514 2.76266 231.407 2.85132 231.351 2.98199C231.295 3.11266 231.267 3.31799 231.267 3.59799V9.82799L230.805 9.95399L236.867 2.36599ZM233.773 1.62399C234.006 1.62399 234.174 1.55399 234.277 1.41399C234.389 1.26466 234.491 1.04999 234.585 0.769989C234.669 0.508655 234.753 0.317322 234.837 0.195988C234.93 0.0653218 235.075 -1.15633e-05 235.271 -1.15633e-05C235.467 -1.15633e-05 235.616 0.0513219 235.719 0.153989C235.821 0.256655 235.873 0.391989 235.873 0.559989C235.873 0.793322 235.775 1.01266 235.579 1.21799C235.383 1.41399 235.126 1.57266 234.809 1.69399C234.491 1.80599 234.151 1.86199 233.787 1.86199C233.432 1.86199 233.096 1.80132 232.779 1.67999C232.461 1.55866 232.205 1.39999 232.009 1.20399C231.813 0.998655 231.715 0.783989 231.715 0.559989C231.715 0.391989 231.766 0.256655 231.869 0.153989C231.981 0.0513219 232.135 -1.15633e-05 232.331 -1.15633e-05C232.545 -1.15633e-05 232.695 0.0653218 232.779 0.195988C232.863 0.317322 232.942 0.513322 233.017 0.783988C233.101 1.07332 233.189 1.28799 233.283 1.42799C233.385 1.55866 233.549 1.62399 233.773 1.62399ZM240.348 11.368C240.086 11.368 239.876 11.2933 239.718 11.144C239.568 10.9853 239.494 10.7753 239.494 10.514C239.494 10.2713 239.568 10.0753 239.718 9.92599C239.876 9.77666 240.086 9.70199 240.348 9.70199C240.609 9.70199 240.81 9.77666 240.95 9.92599C241.099 10.066 241.174 10.262 241.174 10.514C241.174 10.7847 241.099 10.9947 240.95 11.144C240.81 11.2933 240.609 11.368 240.348 11.368ZM71.7162 19.786C70.6055 19.786 69.8075 20.5093 69.3222 21.956C69.3128 21.984 69.2848 21.998 69.2382 21.998C69.1915 21.9887 69.1682 21.97 69.1682 21.942C69.2055 21.5687 69.2475 21.088 69.2942 20.5C69.3408 19.9027 69.3642 19.4547 69.3642 19.156C69.3642 19.1093 69.3875 19.086 69.4342 19.086C69.4902 19.086 69.5182 19.1093 69.5182 19.156C69.5182 19.3613 69.7842 19.464 70.3162 19.464C71.1188 19.492 72.0568 19.506 73.1302 19.506C73.6808 19.506 74.2642 19.4967 74.8802 19.478L75.8322 19.464C76.1868 19.464 76.4435 19.4407 76.6022 19.394C76.7702 19.3473 76.8775 19.254 76.9242 19.114C76.9335 19.0767 76.9615 19.058 77.0082 19.058C77.0642 19.058 77.0922 19.0767 77.0922 19.114C77.0642 19.394 77.0315 19.842 76.9942 20.458C76.9662 21.074 76.9522 21.5687 76.9522 21.942C76.9522 21.97 76.9288 21.984 76.8822 21.984C76.8355 21.984 76.8075 21.97 76.7982 21.942C76.6582 21.2233 76.3968 20.6867 76.0142 20.332C75.6315 19.968 75.1602 19.786 74.6002 19.786C74.3295 19.786 74.1475 19.8467 74.0542 19.968C73.9702 20.08 73.9282 20.2993 73.9282 20.626V27.08C73.9282 27.3693 73.9562 27.5793 74.0122 27.71C74.0682 27.8407 74.1755 27.9293 74.3342 27.976C74.4928 28.0227 74.7448 28.046 75.0902 28.046C75.1182 28.046 75.1322 28.074 75.1322 28.13C75.1322 28.186 75.1182 28.214 75.0902 28.214C74.7542 28.214 74.4882 28.2093 74.2922 28.2L73.1302 28.186L71.9962 28.2C71.8002 28.2093 71.5295 28.214 71.1842 28.214C71.1562 28.214 71.1422 28.186 71.1422 28.13C71.1422 28.074 71.1562 28.046 71.1842 28.046C71.5202 28.046 71.7675 28.0227 71.9262 27.976C72.0942 27.9293 72.2062 27.8407 72.2622 27.71C72.3275 27.57 72.3602 27.36 72.3602 27.08V20.598C72.3602 20.2807 72.3182 20.066 72.2342 19.954C72.1502 19.842 71.9775 19.786 71.7162 19.786ZM82.0422 28.27C81.7996 28.27 81.5149 28.256 81.1882 28.228C81.0669 28.228 80.8709 28.2233 80.6002 28.214C80.3296 28.1953 80.0916 28.186 79.8862 28.186L78.9902 28.2C78.7942 28.2093 78.5236 28.214 78.1782 28.214C78.1502 28.214 78.1362 28.186 78.1362 28.13C78.1362 28.074 78.1502 28.046 78.1782 28.046C78.4956 28.0273 78.7149 28.004 78.8362 27.976C78.9669 27.9387 79.0556 27.8593 79.1022 27.738C79.1582 27.6073 79.1862 27.388 79.1862 27.08V20.598C79.1862 20.29 79.1629 20.0753 79.1162 19.954C79.0696 19.8327 78.9809 19.7533 78.8502 19.716C78.7289 19.6787 78.5096 19.6507 78.1922 19.632C78.1736 19.632 78.1642 19.604 78.1642 19.548C78.1642 19.492 78.1736 19.464 78.1922 19.464L78.8922 19.478C79.2842 19.4967 79.6389 19.506 79.9562 19.506C80.2642 19.506 80.6516 19.4967 81.1182 19.478L81.9162 19.464C81.9349 19.464 81.9442 19.492 81.9442 19.548C81.9442 19.604 81.9349 19.632 81.9162 19.632C81.5522 19.6507 81.3002 19.6787 81.1602 19.716C81.0202 19.7533 80.9176 19.8373 80.8522 19.968C80.7869 20.0987 80.7542 20.318 80.7542 20.626V27.08C80.7542 27.36 80.8196 27.57 80.9502 27.71C81.0902 27.85 81.3702 27.92 81.7902 27.92C82.4342 27.92 82.8916 27.752 83.1622 27.416C83.4329 27.0707 83.5682 26.534 83.5682 25.806C83.5682 25.0593 83.4236 24.518 83.1342 24.182C82.8542 23.8367 82.3689 23.664 81.6782 23.664C81.2489 23.664 80.7216 23.7247 80.0962 23.846L80.0122 23.524C80.7122 23.356 81.4262 23.272 82.1542 23.272C83.1436 23.272 83.8996 23.468 84.4222 23.86C84.9449 24.2427 85.2062 24.812 85.2062 25.568C85.2062 26.1093 85.0709 26.5853 84.8002 26.996C84.5296 27.3973 84.1516 27.71 83.6662 27.934C83.1902 28.158 82.6489 28.27 82.0422 28.27ZM88.3982 27.08C88.3982 27.3693 88.4216 27.5793 88.4682 27.71C88.5149 27.8407 88.6036 27.9293 88.7342 27.976C88.8742 28.0227 89.0936 28.046 89.3922 28.046C89.4202 28.046 89.4342 28.074 89.4342 28.13C89.4342 28.186 89.4202 28.214 89.3922 28.214C89.0842 28.214 88.8416 28.2093 88.6642 28.2L87.6002 28.186L86.5642 28.2C86.3776 28.2093 86.1256 28.214 85.8082 28.214C85.7896 28.214 85.7802 28.186 85.7802 28.13C85.7802 28.074 85.7896 28.046 85.8082 28.046C86.1069 28.046 86.3262 28.0227 86.4662 27.976C86.6062 27.9293 86.6996 27.8407 86.7462 27.71C86.8022 27.57 86.8302 27.36 86.8302 27.08V20.598C86.8302 20.318 86.8022 20.1127 86.7462 19.982C86.6996 19.8513 86.6062 19.7627 86.4662 19.716C86.3262 19.66 86.1069 19.632 85.8082 19.632C85.7896 19.632 85.7802 19.604 85.7802 19.548C85.7802 19.492 85.7896 19.464 85.8082 19.464L86.5642 19.478C86.9936 19.4967 87.3389 19.506 87.6002 19.506C87.8896 19.506 88.2489 19.4967 88.6782 19.478L89.3922 19.464C89.4202 19.464 89.4342 19.492 89.4342 19.548C89.4342 19.604 89.4202 19.632 89.3922 19.632C89.1029 19.632 88.8882 19.66 88.7482 19.716C88.6082 19.772 88.5149 19.87 88.4682 20.01C88.4216 20.1407 88.3982 20.346 88.3982 20.626V27.08ZM101.966 19.366C101.994 19.338 102.064 19.324 102.176 19.324C102.242 19.324 102.302 19.3333 102.358 19.352C102.414 19.3707 102.442 19.394 102.442 19.422V27.08C102.442 27.36 102.47 27.57 102.526 27.71C102.582 27.8407 102.685 27.9293 102.834 27.976C102.984 28.0227 103.217 28.046 103.534 28.046C103.562 28.046 103.576 28.074 103.576 28.13C103.576 28.186 103.562 28.214 103.534 28.214C103.208 28.214 102.946 28.2093 102.75 28.2L101.672 28.186L100.412 28.2C100.244 28.2093 100.016 28.214 99.7262 28.214C99.6982 28.214 99.6842 28.186 99.6842 28.13C99.6842 28.074 99.6982 28.046 99.7262 28.046C100.072 28.046 100.324 28.0227 100.482 27.976C100.641 27.9293 100.748 27.8407 100.804 27.71C100.86 27.5793 100.888 27.3693 100.888 27.08V20.906L101.35 20.78L95.2882 28.368C95.2602 28.396 95.1902 28.41 95.0782 28.41C94.9009 28.41 94.8122 28.3773 94.8122 28.312V20.598C94.8122 20.318 94.7842 20.1127 94.7282 19.982C94.6722 19.8513 94.5696 19.7627 94.4202 19.716C94.2709 19.66 94.0376 19.632 93.7202 19.632C93.6922 19.632 93.6782 19.604 93.6782 19.548C93.6782 19.492 93.6922 19.464 93.7202 19.464L94.5042 19.478C94.9709 19.4967 95.3302 19.506 95.5822 19.506C95.9556 19.506 96.3756 19.4967 96.8422 19.478L97.5282 19.464C97.5562 19.464 97.5702 19.492 97.5702 19.548C97.5702 19.604 97.5562 19.632 97.5282 19.632C97.1829 19.632 96.9309 19.66 96.7722 19.716C96.6136 19.7627 96.5062 19.8513 96.4502 19.982C96.3942 20.1127 96.3662 20.318 96.3662 20.598V26.828L95.9042 26.954L101.966 19.366ZM109.037 19.786L109.443 19.814L109.289 26.436C109.279 26.94 109.377 27.3367 109.583 27.626C109.797 27.906 110.096 28.046 110.479 28.046C110.507 28.046 110.521 28.074 110.521 28.13C110.521 28.186 110.507 28.214 110.479 28.214C110.227 28.214 110.031 28.2093 109.891 28.2L109.121 28.186L108.239 28.2C108.089 28.2093 107.889 28.214 107.637 28.214C107.609 28.214 107.595 28.186 107.595 28.13C107.595 28.074 107.609 28.046 107.637 28.046C108.019 28.046 108.323 27.9013 108.547 27.612C108.771 27.3227 108.887 26.9307 108.897 26.436L109.037 19.786ZM118.921 28.046C118.939 28.046 118.949 28.074 118.949 28.13C118.949 28.186 118.939 28.214 118.921 28.214C118.603 28.214 118.351 28.2093 118.165 28.2L117.129 28.186L116.079 28.2C115.901 28.2093 115.659 28.214 115.351 28.214C115.323 28.214 115.309 28.186 115.309 28.13C115.309 28.074 115.323 28.046 115.351 28.046C115.649 28.046 115.869 28.0227 116.009 27.976C116.158 27.92 116.256 27.8267 116.303 27.696C116.349 27.5653 116.363 27.36 116.345 27.08L116.023 20.864L116.737 19.744L113.167 28.116C113.148 28.1533 113.111 28.172 113.055 28.172C112.999 28.172 112.961 28.1533 112.943 28.116L109.009 20.626C108.822 20.2807 108.626 20.0287 108.421 19.87C108.225 19.7113 107.996 19.632 107.735 19.632C107.707 19.632 107.693 19.604 107.693 19.548C107.693 19.492 107.707 19.464 107.735 19.464L108.393 19.478C108.523 19.4873 108.691 19.492 108.897 19.492L109.639 19.478C109.723 19.4687 109.83 19.464 109.961 19.464C110.082 19.464 110.175 19.506 110.241 19.59C110.306 19.674 110.427 19.8747 110.605 20.192L113.741 26.072L113.041 27.332L116.317 19.814C116.373 19.6833 116.429 19.5947 116.485 19.548C116.55 19.492 116.634 19.464 116.737 19.464C116.821 19.464 116.914 19.4687 117.017 19.478C117.129 19.4873 117.255 19.492 117.395 19.492L118.221 19.478C118.351 19.4687 118.538 19.464 118.781 19.464C118.809 19.464 118.823 19.492 118.823 19.548C118.823 19.604 118.809 19.632 118.781 19.632C118.342 19.632 118.025 19.7207 117.829 19.898C117.633 20.0753 117.544 20.3507 117.563 20.724L117.899 27.08C117.917 27.3693 117.95 27.5793 117.997 27.71C118.053 27.8407 118.146 27.9293 118.277 27.976C118.417 28.0227 118.631 28.046 118.921 28.046ZM121.866 24.616H125.898L125.996 25.008H121.656L121.866 24.616ZM129.3 28.046C129.347 28.046 129.37 28.074 129.37 28.13C129.37 28.186 129.347 28.214 129.3 28.214C129.114 28.214 128.824 28.2047 128.432 28.186C128.022 28.1673 127.728 28.158 127.55 28.158C127.317 28.158 127.032 28.1673 126.696 28.186C126.379 28.2047 126.127 28.214 125.94 28.214C125.903 28.214 125.884 28.186 125.884 28.13C125.884 28.074 125.903 28.046 125.94 28.046C126.183 28.046 126.356 28.0227 126.458 27.976C126.57 27.92 126.626 27.8267 126.626 27.696C126.626 27.5373 126.533 27.2713 126.346 26.898L123.504 21.284L124.19 20.08L121.404 26.226C121.283 26.4967 121.222 26.7487 121.222 26.982C121.222 27.318 121.339 27.5793 121.572 27.766C121.815 27.9527 122.137 28.046 122.538 28.046C122.585 28.046 122.608 28.074 122.608 28.13C122.608 28.186 122.585 28.214 122.538 28.214C122.37 28.214 122.128 28.2047 121.81 28.186C121.456 28.1673 121.148 28.158 120.886 28.158C120.634 28.158 120.331 28.1673 119.976 28.186C119.659 28.2047 119.402 28.214 119.206 28.214C119.169 28.214 119.15 28.186 119.15 28.13C119.15 28.074 119.169 28.046 119.206 28.046C119.468 28.046 119.687 27.9947 119.864 27.892C120.042 27.78 120.219 27.5887 120.396 27.318C120.574 27.038 120.784 26.6273 121.026 26.086L124.064 19.408C124.083 19.38 124.125 19.366 124.19 19.366C124.265 19.366 124.307 19.38 124.316 19.408L127.816 26.296C128.143 26.9587 128.414 27.416 128.628 27.668C128.843 27.92 129.067 28.046 129.3 28.046ZM129.228 28.214C129.191 28.214 129.172 28.186 129.172 28.13C129.172 28.074 129.191 28.046 129.228 28.046C129.489 28.046 129.709 27.9947 129.886 27.892C130.063 27.78 130.241 27.5887 130.418 27.318C130.595 27.038 130.805 26.6273 131.048 26.086L134.086 19.408C134.105 19.38 134.147 19.366 134.212 19.366C134.287 19.366 134.329 19.38 134.338 19.408L137.838 26.296C138.165 26.9587 138.435 27.416 138.65 27.668C138.865 27.92 139.089 28.046 139.322 28.046C139.369 28.046 139.392 28.074 139.392 28.13C139.392 28.186 139.369 28.214 139.322 28.214C139.135 28.214 138.846 28.2047 138.454 28.186C138.043 28.1673 137.749 28.158 137.572 28.158C137.339 28.158 137.054 28.1673 136.718 28.186C136.401 28.2047 136.149 28.214 135.962 28.214C135.925 28.214 135.906 28.186 135.906 28.13C135.906 28.074 135.925 28.046 135.962 28.046C136.205 28.046 136.377 28.0227 136.48 27.976C136.592 27.92 136.648 27.8267 136.648 27.696C136.648 27.5373 136.555 27.2713 136.368 26.898L133.526 21.284L134.212 20.08L131.426 26.226C131.305 26.4967 131.244 26.7487 131.244 26.982C131.244 27.318 131.361 27.5793 131.594 27.766C131.837 27.9527 132.159 28.046 132.56 28.046C132.607 28.046 132.63 28.074 132.63 28.13C132.63 28.186 132.607 28.214 132.56 28.214C132.392 28.214 132.149 28.2047 131.832 28.186C131.477 28.1673 131.169 28.158 130.908 28.158C130.656 28.158 130.353 28.1673 129.998 28.186C129.681 28.2047 129.424 28.214 129.228 28.214ZM143.743 28.27C143.501 28.27 143.216 28.256 142.889 28.228C142.768 28.228 142.572 28.2233 142.301 28.214C142.031 28.1953 141.793 28.186 141.587 28.186L140.691 28.2C140.495 28.2093 140.225 28.214 139.879 28.214C139.851 28.214 139.837 28.186 139.837 28.13C139.837 28.074 139.851 28.046 139.879 28.046C140.197 28.0273 140.416 28.004 140.537 27.976C140.668 27.9387 140.757 27.8593 140.803 27.738C140.859 27.6073 140.887 27.388 140.887 27.08V20.598C140.887 20.29 140.864 20.0753 140.817 19.954C140.771 19.8327 140.682 19.7533 140.551 19.716C140.43 19.6787 140.211 19.6507 139.893 19.632C139.875 19.632 139.865 19.604 139.865 19.548C139.865 19.492 139.875 19.464 139.893 19.464L140.593 19.478C140.985 19.4967 141.34 19.506 141.657 19.506C141.965 19.506 142.353 19.4967 142.819 19.478L143.617 19.464C143.636 19.464 143.645 19.492 143.645 19.548C143.645 19.604 143.636 19.632 143.617 19.632C143.253 19.6507 143.001 19.6787 142.861 19.716C142.721 19.7533 142.619 19.8373 142.553 19.968C142.488 20.0987 142.455 20.318 142.455 20.626V27.08C142.455 27.36 142.521 27.57 142.651 27.71C142.791 27.85 143.071 27.92 143.491 27.92C144.135 27.92 144.593 27.752 144.863 27.416C145.134 27.0707 145.269 26.534 145.269 25.806C145.269 25.0593 145.125 24.518 144.835 24.182C144.555 23.8367 144.07 23.664 143.379 23.664C142.95 23.664 142.423 23.7247 141.797 23.846L141.713 23.524C142.413 23.356 143.127 23.272 143.855 23.272C144.845 23.272 145.601 23.468 146.123 23.86C146.646 24.2427 146.907 24.812 146.907 25.568C146.907 26.1093 146.772 26.5853 146.501 26.996C146.231 27.3973 145.853 27.71 145.367 27.934C144.891 28.158 144.35 28.27 143.743 28.27ZM150.099 27.08C150.099 27.3693 150.123 27.5793 150.169 27.71C150.216 27.8407 150.305 27.9293 150.435 27.976C150.575 28.0227 150.795 28.046 151.093 28.046C151.121 28.046 151.135 28.074 151.135 28.13C151.135 28.186 151.121 28.214 151.093 28.214C150.785 28.214 150.543 28.2093 150.365 28.2L149.301 28.186L148.265 28.2C148.079 28.2093 147.827 28.214 147.509 28.214C147.491 28.214 147.481 28.186 147.481 28.13C147.481 28.074 147.491 28.046 147.509 28.046C147.808 28.046 148.027 28.0227 148.167 27.976C148.307 27.9293 148.401 27.8407 148.447 27.71C148.503 27.57 148.531 27.36 148.531 27.08V20.598C148.531 20.318 148.503 20.1127 148.447 19.982C148.401 19.8513 148.307 19.7627 148.167 19.716C148.027 19.66 147.808 19.632 147.509 19.632C147.491 19.632 147.481 19.604 147.481 19.548C147.481 19.492 147.491 19.464 147.509 19.464L148.265 19.478C148.695 19.4967 149.04 19.506 149.301 19.506C149.591 19.506 149.95 19.4967 150.379 19.478L151.093 19.464C151.121 19.464 151.135 19.492 151.135 19.548C151.135 19.604 151.121 19.632 151.093 19.632C150.804 19.632 150.589 19.66 150.449 19.716C150.309 19.772 150.216 19.87 150.169 20.01C150.123 20.1407 150.099 20.346 150.099 20.626V27.08ZM152.112 28.214C152.093 28.214 152.084 28.186 152.084 28.13C152.084 28.074 152.093 28.046 152.112 28.046C152.439 28.046 152.677 28.0227 152.826 27.976C152.975 27.9293 153.078 27.8407 153.134 27.71C153.19 27.57 153.218 27.36 153.218 27.08V20.598C153.218 20.318 153.19 20.1127 153.134 19.982C153.078 19.8513 152.975 19.7627 152.826 19.716C152.677 19.66 152.439 19.632 152.112 19.632C152.093 19.632 152.084 19.604 152.084 19.548C152.084 19.492 152.093 19.464 152.112 19.464L152.868 19.478C153.297 19.4967 153.643 19.506 153.904 19.506C154.212 19.506 154.599 19.4967 155.066 19.478L155.85 19.464C155.878 19.464 155.892 19.492 155.892 19.548C155.892 19.604 155.878 19.632 155.85 19.632C155.533 19.632 155.299 19.66 155.15 19.716C155.001 19.7627 154.898 19.8513 154.842 19.982C154.795 20.1127 154.772 20.318 154.772 20.598V27.052C154.772 27.3693 154.781 27.5793 154.8 27.682C154.828 27.7847 154.884 27.85 154.968 27.878C155.052 27.906 155.22 27.92 155.472 27.92H157.6C157.861 27.92 158.039 27.906 158.132 27.878C158.235 27.8407 158.3 27.766 158.328 27.654C158.356 27.542 158.37 27.3413 158.37 27.052V20.598C158.37 20.318 158.342 20.1127 158.286 19.982C158.23 19.8513 158.127 19.7627 157.978 19.716C157.829 19.66 157.595 19.632 157.278 19.632C157.25 19.632 157.236 19.604 157.236 19.548C157.236 19.492 157.25 19.464 157.278 19.464C157.754 19.492 158.379 19.506 159.154 19.506C159.415 19.506 159.77 19.4967 160.218 19.478L161.03 19.464C161.049 19.464 161.058 19.492 161.058 19.548C161.058 19.604 161.049 19.632 161.03 19.632C160.703 19.632 160.465 19.66 160.316 19.716C160.167 19.7627 160.064 19.8513 160.008 19.982C159.952 20.1127 159.924 20.318 159.924 20.598V27.052C159.924 27.3693 159.933 27.5793 159.952 27.682C159.98 27.7847 160.036 27.85 160.12 27.878C160.204 27.906 160.377 27.92 160.638 27.92H162.766C163.037 27.92 163.219 27.906 163.312 27.878C163.405 27.85 163.466 27.7847 163.494 27.682C163.522 27.57 163.536 27.36 163.536 27.052V20.598C163.536 20.318 163.508 20.1127 163.452 19.982C163.405 19.8513 163.303 19.7627 163.144 19.716C162.995 19.66 162.761 19.632 162.444 19.632C162.425 19.632 162.416 19.604 162.416 19.548C162.416 19.492 162.425 19.464 162.444 19.464L163.242 19.478C163.709 19.4967 164.096 19.506 164.404 19.506C164.675 19.506 165.015 19.4967 165.426 19.478L166.182 19.464C166.21 19.464 166.224 19.492 166.224 19.548C166.224 19.604 166.21 19.632 166.182 19.632C165.865 19.632 165.627 19.66 165.468 19.716C165.319 19.7627 165.216 19.8513 165.16 19.982C165.113 20.1127 165.09 20.318 165.09 20.598V27.08C165.09 27.3507 165.118 27.556 165.174 27.696C165.239 27.8267 165.347 27.92 165.496 27.976C165.645 28.0227 165.874 28.046 166.182 28.046C166.21 28.046 166.224 28.074 166.224 28.13C166.224 28.186 166.21 28.214 166.182 28.214H152.112ZM172.543 25.246C172.59 25.2927 172.613 25.344 172.613 25.4C172.613 25.4653 172.59 25.5213 172.543 25.568L169.911 27.654C169.911 27.6633 169.902 27.668 169.883 27.668C169.865 27.668 169.846 27.6587 169.827 27.64C169.809 27.612 169.804 27.5887 169.813 27.57L171.101 25.414L169.813 23.23C169.804 23.2113 169.813 23.188 169.841 23.16C169.879 23.132 169.902 23.132 169.911 23.16L172.543 25.246ZM170.149 25.246C170.196 25.2927 170.219 25.344 170.219 25.4C170.219 25.4653 170.196 25.5213 170.149 25.568L167.517 27.654C167.517 27.6633 167.508 27.668 167.489 27.668C167.471 27.668 167.452 27.6587 167.433 27.64C167.415 27.612 167.41 27.5887 167.419 27.57L168.721 25.414L167.419 23.23C167.41 23.2113 167.419 23.188 167.447 23.16C167.485 23.132 167.508 23.132 167.517 23.16L170.149 25.246Z" fill="#1D1616"/>
</svg>
